# xmcd
# Copyright (c) 1998 CDDB Inc.
#
# Track frame offsets:
#	185
#	14167
#	26072
#	38970
#	49480
#	63582
#	74590
#	86140
#	97255
#	109085
#	120850
#
# Disc length: 1732 seconds
#
# Revision: 2
# Processed by: cddbd v1.4PL0 Copyright (c) Steve Scherf et al.
# Submitted via: audiograbber 1.70
#
DISCID=a406c20b
DTITLE=Warrior River Boys - New Beginnings
DYEAR=1900
DGENRE=
TTITLE0=I Don'T Know What To Do
TTITLE1=You'Re That Certain Someone
TTITLE2=I Told The Stars About You
TTITLE3=Right Before My Eyes
TTITLE4=My Mother'S Bible
TTITLE5=Midnight Train
TTITLE6=Old Love Letters
TTITLE7=That'S What I Like About You
TTITLE8=Farewell To Long Hollow
TTITLE9=Lay My Burdens Down
TTITLE10=Throne Of Grace
EXTD=
EXTT0=
EXTT1=
EXTT2=
EXTT3=
EXTT4=
EXTT5=
EXTT6=
EXTT7=
EXTT8=
EXTT9=
EXTT10=
PLAYORDER=
